<?xml version="1.0" encoding="utf-8"?>
<svg viewBox="0 0 500 500" xmlns="http://www.w3.org/2000/svg" xmlns:bx="https://boxy-svg.com">
  <defs>
    <marker id="marker-0" viewBox="0 0 8.334 8.334" overflow="visible" orient="auto" refX="4.17" refY="4.17" bx:pinned="true">
      <path d="M 404.116 193.392 L 408.283 201.726 L 399.949 201.726 L 404.116 193.392 Z" style="stroke: rgb(0, 0, 0);" transform="matrix(1, 0, 0, 1, -399.94900512695307, -193.39199829101562)" bx:shape="triangle 399.949 193.392 8.334 8.334 0.5 0 1@dc7b0801"/>
    </marker>
    <marker id="marker-1" viewBox="0 0 4.372 4.372" overflow="visible" orient="auto" refX="2.19" refY="2.19" bx:pinned="true">
      <path d="M -444.858 -268.266 L -442.672 -263.894 L -447.044 -263.894 L -444.858 -268.266 Z" style="stroke: rgb(0, 0, 0);" transform="matrix(-1, 0, 0, -1, -442.67199707031244, -263.8940124511719)" bx:shape="triangle -447.044 -268.266 4.372 4.372 0.5 0 1@a0808964"/>
    </marker>
    <marker id="marker-2" viewBox="0 0 5.915 6.243" overflow="visible" orient="auto" refX="2.96" refY="3.12" bx:pinned="true">
      <path d="M 431.576 228.642 L 434.697 234.557 L 428.454 234.557 L 431.576 228.642 Z" style="stroke: rgb(0, 0, 0);" transform="matrix(0, -1, 1, 0, -228.6419982910156, 434.6969909667969)" bx:shape="triangle 428.454 228.642 6.243 5.915 0.5 0 1@64f4ca1d"/>
    </marker>
    <marker id="marker-3" viewBox="0 0 6.19 6.243" overflow="visible" orient="auto" refX="3.1" refY="3.12" bx:pinned="true">
      <path d="M -425.332 -239.274 L -422.211 -233.084 L -428.454 -233.084 L -425.332 -239.274 Z" style="stroke: rgb(0, 0, 0);" transform="matrix(0, -1, -1, 0, -233.08399963378903, -422.21099853515625)" bx:shape="triangle -428.454 -239.274 6.243 6.19 0.5 0 1@9167fff7"/>
    </marker>
  </defs>
  <g transform="matrix(0.065536, 0, 0, -0.065536, 65.47821, 487.556793)" fill="#000000" stroke="none" style=""/>
  <rect x="188.127" y="114.358" width="66.669" height="26.39" rx="16" ry="16" style="stroke: rgb(0, 0, 0); fill: rgb(255, 255, 255);"/>
  <rect x="122.7" y="153.74" width="199.083" height="91.106" style="stroke: rgb(0, 0, 0); fill: rgb(255, 255, 255);"/>
  <rect x="323.379" y="376.698" width="88.756" height="65.868" style="stroke: rgb(0, 0, 0); fill: rgb(255, 255, 255);" transform="matrix(0.914572, -0.404423, 1.233732, 0.547852, -620.964294, 283.277863)" bx:origin="0.464 0.514"/>
  <rect x="67.567" y="261.74" width="306.955" height="26.853" style="stroke: rgb(0, 0, 0); fill: rgb(255, 255, 255);"/>
  <rect x="193.345" y="426.731" width="66.669" height="26.39" rx="16" ry="16" style="stroke: rgb(0, 0, 0); fill: rgb(255, 255, 255);"/>
  <rect x="22.513" y="369.206" width="98.152" height="25.721" style="stroke: rgb(0, 0, 0); fill: rgb(255, 255, 255);"/>
  <polyline style="stroke: rgb(0, 0, 0); marker-end: url(#marker-3); fill: rgb(255, 255, 255);" points="221.458 394.616 221.458 411.407 365.471 411.407 365.52 405.894"/>
  <rect x="324.417" y="373.094" width="110.653" height="30.557" style="stroke: rgb(0, 0, 0); fill: rgb(255, 255, 255);"/>
  <rect x="323.788" y="326.659" width="143.339" height="30.557" style="stroke: rgb(0, 0, 0); fill: rgb(255, 255, 255);"/>
  <polyline style="stroke: rgb(0, 0, 0); fill: rgb(255, 255, 255); marker-start: url(#marker-2);" points="222.474 316.549 326.777 317.227 364.504 317.472 364.504 326.896" transform="matrix(0.99991, -0.013414, 0.013414, 0.99991, -4.28918, 3.965808)"/>
  <rect x="245.891" y="315.265" width="69.447" height="11.574" style="stroke: rgb(0, 0, 0); fill: rgb(255, 255, 255);"/>
  <text style="font-family: Roboto; font-size: 11px; white-space: pre;" x="32.165" y="385.409">Output of results</text>
  <text style="white-space: pre; fill: rgb(51, 51, 51); font-family: Arial, sans-serif; font-size: 1.8px;" x="513.018" y="142.426"> </text>
  <text style="font-family: Roboto; font-size: 11px; white-space: pre;" x="215.036" y="443.446">End</text>
  <text style="font-family: Arial, sans-serif; font-size: 12px; line-height: 292.969px; white-space: pre;" x="208.2" y="131.691">Start</text>
  <text style="fill: rgb(51, 51, 51); font-family: Arial, sans-serif; font-size: 10px; text-anchor: middle; white-space: pre;" transform="matrix(1, 0, 0, 1, 72.347679, 77.8675)"><tspan x="148.924" y="87.014" style="fill: rgb(0, 0, 0);">Creating and Initializing variables:</tspan><tspan x="148.924" dy="1em">​</tspan><tspan style="fill: rgb(0, 0, 0);">chars = ['A', 'C', 'G', 'T'] </tspan><tspan x="148.924" dy="1em">​</tspan><tspan style="fill: rgb(0, 0, 0);">msalle = [0b1, 0b10, 0b100, 0b1000]</tspan><tspan x="148.924" dy="1em">​</tspan><tspan x="148.924" dy="1em">​</tspan><tspan> </tspan><tspan style="fill: rgb(255, 0, 0);">nSteps,</tspan><tspan x="148.924" dy="1em">​</tspan><tspan style="fill: rgb(255, 0, 255);">sampleSize</tspan><tspan>, </tspan><tspan x="148.924" dy="1em">​</tspan><tspan style="fill: rgb(0, 178, 0);">nDNAMute,</tspan><tspan style="fill: rgb(255, 255, 0);"> </tspan><tspan x="148.924" dy="1em">​</tspan><tspan style="fill: rgb(0, 0, 255);">nMSMute</tspan></text>
  <text style="font-family: Arial, sans-serif; font-size: 11px; white-space: pre;" x="79.664" y="277.908">Executing code to create an initial population of organisms</text>
  <text style="fill: rgb(0, 255, 0); font-family: Arial, sans-serif; font-size: 11px; white-space: pre;"><tspan x="329.197" y="383.285" style="fill: rgb(0, 0, 0);">Changing</tspan><tspan> </tspan><tspan style="fill: rgb(0, 200, 0);">nDNAMute</tspan></text>
  <text style="fill: rgb(51, 51, 51); font-family: Arial, sans-serif; font-size: 11px; white-space: pre;" x="-3.981" y="12.017"><tspan x="325.878" y="397.313" style="font-size: 11px; word-spacing: 0px;"> </tspan><tspan style="fill: rgb(0, 0, 0); font-size: 11px; word-spacing: 0px;">Changing</tspan><tspan style="font-size: 11px; word-spacing: 0px;"> </tspan><tspan style="fill: rgb(0, 0, 255); font-size: 11px; word-spacing: 0px;">nMSMute</tspan></text>
  <text style="font-family: Arial, sans-serif; font-size: 10px; text-anchor: middle; white-space: pre;" transform="matrix(1, 0, 0, 1, 230.585632, -44.111588)"><tspan x="164.213" y="384.296">Creating a temporary sample </tspan><tspan x="164.213" dy="1em">​</tspan><tspan style="fill: rgb(255, 0, 255);">sampleSize</tspan></text>
  <text style="fill: rgb(255, 0, 0); font-family: Roboto; font-size: 11px; white-space: pre;" transform="matrix(1, 0, 0, 1, -20.760042, 30.833185)"><tspan x="203.868" y="322.169">nSteps</tspan><tspan style="fill: rgb(0, 0, 0);">=10000</tspan><tspan x="203.8679962158203" dy="1em">​</tspan><tspan style="fill: rgb(0, 0, 0);">current&gt;</tspan><tspan>nSteps</tspan><tspan style="fill: rgb(0, 0, 0);">?</tspan></text>
  <text style="fill: rgb(0, 255, 55); font-family: Arial, sans-serif; font-size: 10.4px; white-space: pre;" x="471.792" y="338.549"> </text>
  <text style="white-space: pre; fill: rgb(51, 51, 51); font-family: Arial, sans-serif; font-size: 10.4px;" x="462.878" y="370.49"> </text>
  <text style="white-space: pre; fill: rgb(51, 51, 51); font-family: Arial, sans-serif; font-size: 10.4px;" x="282.375" y="157.241"> </text>
  <text style="white-space: pre; fill: rgb(51, 51, 51); font-family: Arial, sans-serif; font-size: 10.4px;" x="377.084" y="288.056"> </text>
  <text style="font-family: Arial, sans-serif; font-size: 13px; white-space: pre;" x="101.437" y="351.002">yes</text>
  <polyline style="stroke: rgb(0, 0, 0); fill: rgb(255, 255, 255); marker-end: url(#marker-3);" points="72.224 366.862 141.67 365.959 141.67 356.757" transform="matrix(-0.999961, -0.008804, 0.008804, -0.999961, 210.704481, 724.546527)"/>
  <line style="fill: rgb(216, 216, 216); stroke: rgb(0, 0, 0); marker-start: url(#marker-2);" x1="366.003" y1="359.271" x2="366.003" y2="372.888"/>
  <line style="fill: rgb(216, 216, 216); stroke: rgb(0, 0, 0); marker-end: url(#marker-3);" x1="220.702" y1="289.098" x2="220.702" y2="321.205"/>
  <line style="fill: rgb(216, 216, 216); stroke: rgb(0, 0, 0); marker-end: url(#marker-3);" x1="221.387" y1="244.315" x2="221.387" y2="259.735"/>
  <line style="fill: rgb(216, 216, 216); stroke: rgb(0, 0, 0); marker-end: url(#marker-3);" x1="221.85" y1="140.756" x2="221.85" y2="151.913"/>
  <text style="font-family: Arial, sans-serif; font-size: 9px; white-space: pre;" x="258.785" y="323.371">current+1</text>
  <polyline style="stroke: rgb(0, 0, 0); marker-end: url(#marker-3); fill: rgb(255, 255, 255);" points="71.418 395.109 71.418 442.129 191.655 442.129"/>
  <text style="font-family: Arial, sans-serif; font-size: 12.3px; white-space: pre;" x="277.058" y="406.134">no</text>
</svg>