<?xml version="1.0" encoding="utf-8"?>
<svg viewBox="0 0 500 500" xmlns="http://www.w3.org/2000/svg" xmlns:bx="https://boxy-svg.com">
  <defs>
    <marker id="marker-0" viewBox="0 0 8.334 8.334" overflow="visible" orient="auto" refX="4.17" refY="4.17" bx:pinned="true">
      <path d="M 404.116 193.392 L 408.283 201.726 L 399.949 201.726 L 404.116 193.392 Z" style="stroke: rgb(0, 0, 0);" transform="matrix(1, 0, 0, 1, -399.94900512695307, -193.39199829101562)" bx:shape="triangle 399.949 193.392 8.334 8.334 0.5 0 1@dc7b0801"/>
    </marker>
    <marker id="marker-1" viewBox="0 0 4.372 4.372" overflow="visible" orient="auto" refX="2.19" refY="2.19" bx:pinned="true">
      <path d="M -444.858 -268.266 L -442.672 -263.894 L -447.044 -263.894 L -444.858 -268.266 Z" style="stroke: rgb(0, 0, 0);" transform="matrix(-1, 0, 0, -1, -442.67199707031244, -263.8940124511719)" bx:shape="triangle -447.044 -268.266 4.372 4.372 0.5 0 1@a0808964"/>
    </marker>
    <marker id="marker-2" viewBox="0 0 5.915 6.243" overflow="visible" orient="auto" refX="2.96" refY="3.12" bx:pinned="true">
      <path d="M 431.576 228.642 L 434.697 234.557 L 428.454 234.557 L 431.576 228.642 Z" style="stroke: rgb(0, 0, 0);" transform="matrix(0, -1, 1, 0, -228.6419982910156, 434.6969909667969)" bx:shape="triangle 428.454 228.642 6.243 5.915 0.5 0 1@64f4ca1d"/>
    </marker>
    <marker id="marker-3" viewBox="0 0 6.19 6.243" overflow="visible" orient="auto" refX="3.1" refY="3.12" bx:pinned="true">
      <path d="M -425.332 -239.274 L -422.211 -233.084 L -428.454 -233.084 L -425.332 -239.274 Z" style="stroke: rgb(0, 0, 0);" transform="matrix(0, -1, -1, 0, -233.08399963378903, -422.21099853515625)" bx:shape="triangle -428.454 -239.274 6.243 6.19 0.5 0 1@9167fff7"/>
    </marker>
  </defs>
  <g transform="matrix(0.065536, 0, 0, -0.065536, 65.47821, 487.556793)" fill="#000000" stroke="none" style=""/>
  <line style="fill: rgb(216, 216, 216); stroke: rgb(0, 0, 0); marker-start: url(#marker-2);" x1="219.998" y1="388.262" x2="219.998" y2="395.302"/>
  <rect x="188.127" y="28.358" width="66.669" height="26.39" rx="16" ry="16" style="fill: rgb(216, 216, 216); stroke: rgb(0, 0, 0);"/>
  <rect x="122.7" y="67.74" width="199.083" height="91.106" style="fill: rgb(216, 216, 216); stroke: rgb(0, 0, 0);"/>
  <rect x="143.555" y="170.534" width="155.619" height="76.509" style="fill: rgb(216, 216, 216); stroke: rgb(0, 0, 0);"/>
  <rect x="323.379" y="376.698" width="88.756" height="65.868" style="fill: rgb(216, 216, 216); stroke: rgb(0, 0, 0);" transform="matrix(0.914572, -0.404423, 1.233732, 0.547852, -620.964294, 255.277863)" bx:origin="0.464 0.514"/>
  <rect x="67.567" y="257.74" width="306.955" height="26.853" style="fill: rgb(216, 216, 216); stroke: rgb(0, 0, 0);"/>
  <rect x="37.159" y="389.899" width="66.669" height="26.39" rx="16" ry="16" style="fill: rgb(216, 216, 216); stroke: rgb(0, 0, 0);"/>
  <rect x="22.513" y="343.206" width="98.152" height="25.721" style="fill: rgb(216, 216, 216); stroke: rgb(0, 0, 0);"/>
  <rect x="315.409" y="342.214" width="110.653" height="30.557" style="fill: rgb(216, 216, 216); stroke: rgb(0, 0, 0);"/>
  <rect x="212.905" y="393.605" width="176.858" height="30.557" style="fill: rgb(216, 216, 216); stroke: rgb(0, 0, 0);"/>
  <rect x="184.83" y="374.485" width="69.447" height="11.574" style="fill: rgb(216, 216, 216); stroke: rgb(0, 0, 0);"/>
  <text style="font-family: Roboto; font-size: 11px; white-space: pre;" x="32.165" y="359.409">Output of results</text>
  <text style="white-space: pre; fill: rgb(51, 51, 51); font-family: Arial, sans-serif; font-size: 1.8px;" x="513.018" y="142.426"> </text>
  <text style="font-family: Roboto; font-size: 11px; white-space: pre;" x="60.297" y="406.273">End</text>
  <text style="font-family: Arial, sans-serif; font-size: 12px; line-height: 292.969px; white-space: pre;" x="208.2" y="44.691">Start</text>
  <text style="fill: rgb(51, 51, 51); font-family: Arial, sans-serif; font-size: 10px; text-anchor: middle; white-space: pre;" transform="matrix(1, 0, 0, 1, 72.347679, -6.132503)"><tspan x="148.924" y="87.014" style="fill: rgb(0, 0, 0);">Creating and Initializing variables:</tspan><tspan x="148.924" dy="1em">​</tspan><tspan style="fill: rgb(0, 0, 0);">chars = ['A', 'C', 'G', 'T'] </tspan><tspan x="148.924" dy="1em">​</tspan><tspan style="fill: rgb(0, 0, 0);">msalle = [0b1, 0b10, 0b100, 0b1000]</tspan><tspan x="148.924" dy="1em">​</tspan><tspan x="148.924" dy="1em">​</tspan><tspan> </tspan><tspan style="fill: rgb(255, 0, 0);">nSteps,</tspan><tspan x="148.924" dy="1em">​</tspan><tspan style="fill: rgb(255, 0, 255);">sampleSize</tspan><tspan>, </tspan><tspan x="148.924" dy="1em">​</tspan><tspan style="fill: rgb(0, 255, 0);">nDNAMute</tspan><tspan style="fill: rgb(0, 255, 55);">,</tspan><tspan> </tspan><tspan x="148.924" dy="1em">​</tspan><tspan style="fill: rgb(0, 0, 255);">nMSMute</tspan></text>
  <text style="font-family: Arial, sans-serif; font-size: 9px; text-anchor: middle; white-space: pre;" transform="matrix(1, 0, 0, 1, 44.16761, -11.517035)"><tspan x="177.237" y="192.337">Function definition: </tspan><tspan x="177.237" dy="1em">​</tspan><tspan>mkName</tspan><tspan x="177.237" dy="1em">​</tspan><tspan> sampleDNA</tspan><tspan x="177.237" dy="1em">​</tspan><tspan> sampleMSAT </tspan><tspan x="177.237" dy="1em">​</tspan><tspan> newGad </tspan><tspan x="177.237" dy="1em">​</tspan><tspan>cloneGad </tspan><tspan x="177.237" dy="1em">​</tspan><tspan>mutateDNA</tspan><tspan x="177.237" dy="1em">​</tspan><tspan>mutate_ms</tspan></text>
  <text style="font-family: Arial, sans-serif; font-size: 11px; white-space: pre;" x="79.664" y="273.908">Executing code to create an initial population of organisms</text>
  <text style="fill: rgb(0, 255, 0); font-family: Arial, sans-serif; font-size: 11px; white-space: pre;" x="-8" y="7"><tspan x="321.715" y="355.121" style="fill: rgb(0, 0, 0); font-size: 11px; word-spacing: 0px;">Changing</tspan><tspan style="font-size: 11px; word-spacing: 0px;"> nDNAMute</tspan></text>
  <text style="fill: rgb(51, 51, 51); font-family: Arial, sans-serif; font-size: 11px; white-space: pre;" x="-11.556" y="-18.149"><tspan x="318.303" y="367.147" style="font-size: 11px; word-spacing: 0px;"> </tspan><tspan style="fill: rgb(0, 0, 0); font-size: 11px; word-spacing: 0px;">Changing</tspan><tspan style="font-size: 11px; word-spacing: 0px;"> </tspan><tspan style="fill: rgb(0, 0, 255); font-size: 11px; word-spacing: 0px;">nMSMute</tspan></text>
  <text style="font-family: Arial, sans-serif; font-size: 10px; text-anchor: middle; white-space: pre;" transform="matrix(1, 0, 0, 1, 132.622757, 24.159145)"><tspan x="164.213" y="384.296">Creating a temporary sample </tspan><tspan x="164.213" dy="1em">​</tspan><tspan style="fill: rgb(255, 0, 255);">sampleSize</tspan></text>
  <text style="fill: rgb(255, 0, 0); font-family: Roboto; font-size: 11px; white-space: pre;" transform="matrix(1, 0, 0, 1, -21.760042, 4.833184)"><tspan x="203.868" y="322.169">nSteps</tspan><tspan style="fill: rgb(0, 0, 0);">=10000</tspan><tspan x="203.8679962158203" dy="1em">​</tspan><tspan style="fill: rgb(0, 0, 0);">current&gt;</tspan><tspan>nSteps</tspan><tspan style="fill: rgb(0, 0, 0);">?</tspan></text>
  <text style="fill: rgb(0, 255, 55); font-family: Arial, sans-serif; font-size: 10.4px; white-space: pre;" x="471.792" y="310.549"> </text>
  <text style="white-space: pre; fill: rgb(51, 51, 51); font-family: Arial, sans-serif; font-size: 10.4px;" x="462.878" y="342.49"> </text>
  <text style="white-space: pre; fill: rgb(51, 51, 51); font-family: Arial, sans-serif; font-size: 10.4px;" x="282.375" y="157.241"> </text>
  <text style="white-space: pre; fill: rgb(51, 51, 51); font-family: Arial, sans-serif; font-size: 10.4px;" x="377.084" y="284.056"> </text>
  <polyline style="stroke: rgb(0, 0, 0); fill: rgb(255, 255, 255); marker-end: url(#marker-3);" points="301.178 330.873 371.089 331.703 371.089 340.171"/>
  <text style="font-family: Arial, sans-serif; font-size: 13px; white-space: pre;" x="100.437" y="325.002">yes</text>
  <text style="font-family: Arial, sans-serif; font-size: 13px; white-space: pre;" x="324.779" y="325.761">no</text>
  <polyline style="stroke: rgb(0, 0, 0); fill: rgb(255, 255, 255); marker-end: url(#marker-3);" points="71.224 341.309 140.67 340.406 140.67 331.204" transform="matrix(-1, 0, 0, -1, 211.893997, 672.513)"/>
  <line style="fill: rgb(216, 216, 216); stroke: rgb(0, 0, 0); marker-end: url(#marker-3);" x1="371.003" y1="372.845" x2="371.003" y2="391.53"/>
  <line style="fill: rgb(216, 216, 216); stroke: rgb(0, 0, 0); marker-end: url(#marker-3);" x1="70.844" y1="368.696" x2="70.844" y2="388.141"/>
  <line style="fill: rgb(216, 216, 216); stroke: rgb(0, 0, 0); marker-end: url(#marker-3);" x1="220.702" y1="285.098" x2="220.702" y2="293.088"/>
  <line style="fill: rgb(216, 216, 216); stroke: rgb(0, 0, 0); marker-end: url(#marker-3);" x1="221.387" y1="246.892" x2="221.387" y2="255.735"/>
  <line style="fill: rgb(216, 216, 216); stroke: rgb(0, 0, 0); marker-end: url(#marker-3);" x1="221.146" y1="159" x2="221.146" y2="168.546"/>
  <line style="fill: rgb(216, 216, 216); stroke: rgb(0, 0, 0); marker-end: url(#marker-3);" x1="221.85" y1="54.756" x2="221.85" y2="65.913"/>
  <text style="font-family: Arial, sans-serif; font-size: 9px; white-space: pre;" x="199.312" y="382.652">current+1</text>
  <line style="fill: rgb(216, 216, 216); stroke: rgb(0, 0, 0); marker-start: url(#marker-2);" x1="219.929" y1="368.28" x2="219.929" y2="374.245"/>
</svg>