<?xml version="1.0" encoding="utf-8"?>
<svg viewBox="0 0 500 500" xmlns="http://www.w3.org/2000/svg" xmlns:bx="https://boxy-svg.com">
  <g transform="matrix(0.065536, 0, 0, -0.065536, 67.335236, 481.614288)" fill="#000000" stroke="none" style="">
    <path d="M 1933.158 6787.36 C 1839.158 6746.36 1809.158 6618.36 1875.158 6540.36 C 1920.158 6487.36 1947.158 6481.36 2153.158 6481.36 L 2339.158 6481.36 L 2335.158 6151.36 L 1636.158 6151.36 C 1252.158 6151.36 938.158 6150.36 938.158 6148.36 C 938.158 6147.36 893.158 5831.36 838.158 5446.36 C 783.158 5061.36 738.158 4743.36 738.158 4739.36 C 738.158 4735.36 1097.158 4731.36 1536.158 4731.36 L 2334.158 4731.36 L 2336.158 4641.36 L 2339.158 4551.36 L 1938.158 4551.36 L 1538.158 4551.36 L 1538.158 3941.36 L 1538.158 3331.36 L 1936.158 3331.36 L 2334.158 3331.36 L 2336.158 3241.36 L 2339.158 3151.36 L 1238.158 3151.36 L 138.158 3151.36 L 138.158 2941.36 L 138.158 2731.36 L 1237.158 2731.36 L 2337.158 2731.36 L 2338.158 2241.36 L 2339.158 1751.36 L 1788.158 1751.36 L 1238.158 1751.36 L 1238.158 1541.36 L 1238.158 1331.36 L 1789.158 1331.36 L 2339.158 1331.36 L 2337.158 1191.36 L 2335.158 1051.36 L 1986.158 1051.36 L 1638.158 1051.36 L 1638.158 841.36 L 1638.158 631.36 L 1988.158 631.36 L 2338.158 631.36 L 2336.158 567.36 L 2334.158 502.36 L 2137.158 499.36 C 1956.158 496.36 1937.158 494.36 1912.158 475.36 C 1859.158 436.36 1843.158 404.36 1843.158 341.36 C 1843.158 278.36 1859.158 246.36 1912.158 207.36 C 1939.158 187.36 1951.158 186.36 2348.158 186.36 C 2745.158 186.36 2757.158 187.36 2784.158 207.36 C 2837.158 246.36 2853.158 278.36 2853.158 341.36 C 2853.158 404.36 2837.158 436.36 2784.158 475.36 C 2759.158 494.36 2740.158 496.36 2559.158 499.36 L 2362.158 502.36 L 2360.158 567.36 L 2358.158 631.36 L 2708.158 631.36 L 3058.158 631.36 L 3058.158 841.36 L 3058.158 1051.36 L 2710.158 1051.36 L 2361.158 1051.36 L 2359.158 1191.36 L 2357.158 1331.36 L 2907.158 1331.36 L 3458.158 1331.36 L 3458.158 1430.36 L 3458.158 1529.36 L 3698.158 1530.36 L 3938.158 1532.36 L 3938.158 1431.36 L 3938.158 1331.36 L 4748.158 1331.36 L 5558.158 1331.36 L 5558.158 1541.36 L 5558.158 1751.36 L 5159.158 1751.36 L 4761.158 1751.36 L 4759.158 1941.36 L 4757.158 2131.36 L 5157.158 2131.36 L 5558.158 2131.36 L 5558.158 2341.36 L 5558.158 2551.36 L 5159.158 2551.36 L 4761.158 2551.36 L 4759.158 2743.36 C 4758.158 2848.36 4755.158 2938.36 4752.158 2943.36 C 4749.158 2947.36 4704.158 2951.36 4652.158 2951.36 L 4558.158 2951.36 L 4558.158 3051.36 L 4558.158 3151.36 L 3458.158 3151.36 L 2357.158 3151.36 L 2360.158 3241.36 L 2362.158 3331.36 L 2760.158 3331.36 L 3158.158 3331.36 L 3158.158 3941.36 L 3158.158 4551.36 L 2758.158 4551.36 L 2357.158 4551.36 L 2360.158 4641.36 L 2362.158 4731.36 L 3060.158 4731.36 C 3444.158 4731.36 3758.158 4732.36 3758.158 4734.36 C 3758.158 4735.36 3803.158 5051.36 3858.158 5436.36 C 3913.158 5821.36 3958.158 6139.36 3958.158 6143.36 C 3958.158 6147.36 3599.158 6151.36 3160.158 6151.36 L 2361.158 6151.36 L 2357.158 6480.36 L 2557.158 6483.36 C 2740.158 6486.36 2759.158 6488.36 2784.158 6507.36 C 2837.158 6546.36 2853.158 6578.36 2853.158 6641.36 C 2853.158 6704.36 2837.158 6736.36 2784.158 6775.36 C 2757.158 6795.36 2743.158 6796.36 2360.158 6798.36 C 2045.158 6800.36 1957.158 6798.36 1933.158 6787.36 Z M 2766.158 6761.36 C 2808.158 6735.36 2838.158 6685.36 2838.158 6641.36 C 2838.158 6597.36 2808.158 6547.36 2766.158 6521.36 C 2735.158 6502.36 2715.158 6501.36 2348.158 6501.36 C 1981.158 6501.36 1961.158 6502.36 1930.158 6521.36 C 1836.158 6578.36 1836.158 6704.36 1930.158 6761.36 C 1961.158 6780.36 1981.158 6781.36 2348.158 6781.36 C 2715.158 6781.36 2735.158 6780.36 2766.158 6761.36 Z M 3933.158 6109.36 C 3931.158 6096.36 3888.158 5798.36 3838.158 5446.36 C 3788.158 5094.36 3745.158 4794.36 3742.158 4779.36 L 3736.158 4751.36 L 2247.158 4751.36 L 758.158 4751.36 L 763.158 4774.36 C 765.158 4786.36 808.158 5084.36 858.158 5436.36 C 908.158 5788.36 951.158 6088.36 954.158 6104.36 L 960.158 6131.36 L 2449.158 6131.36 L 3938.158 6131.36 L 3933.158 6109.36 Z M 3138.158 3941.36 L 3138.158 3351.36 L 2348.158 3351.36 L 1558.158 3351.36 L 1558.158 3941.36 L 1558.158 4531.36 L 2348.158 4531.36 L 3138.158 4531.36 L 3138.158 3941.36 Z M 4538.158 2941.36 L 4538.158 2751.36 L 2348.158 2751.36 L 158.158 2751.36 L 158.158 2941.36 L 158.158 3131.36 L 2348.158 3131.36 L 4538.158 3131.36 L 4538.158 2941.36 Z M 4737.158 2741.36 L 4735.158 2551.36 L 4337.158 2551.36 L 3938.158 2551.36 L 3938.158 2341.36 L 3938.158 2131.36 L 4339.158 2131.36 L 4739.158 2131.36 L 4737.158 1941.36 L 4735.158 1751.36 L 4337.158 1751.36 L 3938.158 1751.36 L 3938.158 1651.36 L 3938.158 1550.36 L 3698.158 1552.36 L 3458.158 1553.36 L 3458.158 1652.36 L 3458.158 1751.36 L 2908.158 1751.36 L 2357.158 1751.36 L 2358.158 2241.36 L 2359.158 2731.36 L 3459.158 2731.36 L 4558.158 2731.36 L 4558.158 2831.36 L 4558.158 2931.36 L 4649.158 2931.36 L 4739.158 2931.36 L 4737.158 2741.36 Z M 5538.158 2341.36 L 5538.158 2151.36 L 4748.158 2151.36 L 3958.158 2151.36 L 3958.158 2341.36 L 3958.158 2531.36 L 4748.158 2531.36 L 5538.158 2531.36 L 5538.158 2341.36 Z M 3438.158 1541.36 L 3438.158 1351.36 L 2348.158 1351.36 L 1258.158 1351.36 L 1258.158 1541.36 L 1258.158 1731.36 L 2348.158 1731.36 L 3438.158 1731.36 L 3438.158 1541.36 Z M 5538.158 1541.36 L 5538.158 1351.36 L 4748.158 1351.36 L 3958.158 1351.36 L 3958.158 1541.36 L 3958.158 1731.36 L 4748.158 1731.36 L 5538.158 1731.36 L 5538.158 1541.36 Z M 3038.158 841.36 L 3038.158 651.36 L 2348.158 651.36 L 1658.158 651.36 L 1658.158 841.36 L 1658.158 1031.36 L 2348.158 1031.36 L 3038.158 1031.36 L 3038.158 841.36 Z M 2766.158 461.36 C 2808.158 435.36 2838.158 385.36 2838.158 341.36 C 2838.158 297.36 2808.158 247.36 2766.158 221.36 C 2735.158 202.36 2715.158 201.36 2348.158 201.36 C 1981.158 201.36 1961.158 202.36 1930.158 221.36 C 1836.158 278.36 1836.158 404.36 1930.158 461.36 C 1961.158 480.36 1981.158 481.36 2348.158 481.36 C 2715.158 481.36 2735.158 480.36 2766.158 461.36 Z"/>
    <text style="font-family: Arial, sans-serif; font-size: 183.105px; line-height: 292.969px; white-space: pre;" transform="matrix(1, 0, 0, -1, 0, 0)" x="2136.37" y="-6593.41">Start</text>
    <text style="font-family: Roboto; font-size: 167.847px; white-space: pre;" transform="matrix(1, 0, 0, -1, 0, 0)" x="1747.234" y="-782.378">Output of results</text>
    <text style="font-family: Roboto; font-size: 167.847px; white-space: pre;" transform="matrix(1, 0, 0, -1, 0, 0)" x="2182.422" y="-274.703">End</text>
    <path d="M 2347.148 6142.492 L 2394.674 6280.277 L 2299.621 6280.277 L 2347.148 6142.492 Z" style="paint-order: fill markers; stroke-width: 137.329px;" bx:shape="triangle 2299.621 6142.492 95.053 137.785 0.5 0 1@4d9e2c2f"/>
    <path d="M 1183.288 700.674 L 1241.153 848.785 L 1125.423 848.785 L 1183.288 700.674 Z" style="paint-order: fill markers; stroke-width: 137.329px;" transform="matrix(0.006303, -0.99998, 0.99998, 0.006303, 2737.157471, 2717.146729)" bx:shape="triangle 1125.423 700.674 115.73 148.111 0.5 0 1@63ceb53f"/>
    <path d="M 2348.559 4529.109 L 2396.085 4666.894 L 2301.032 4666.894 L 2348.559 4529.109 Z" style="paint-order: fill markers; stroke-width: 137.329px;" bx:shape="triangle 2301.032 4529.109 95.053 137.785 0.5 0 1@48f6e979"/>
    <path d="M 2349.648 3132.645 L 2397.174 3270.43 L 2302.121 3270.43 L 2349.648 3132.645 Z" style="paint-order: fill markers; stroke-width: 137.329px;" bx:shape="triangle 2302.121 3132.645 95.053 137.785 0.5 0 1@d024f6ff"/>
    <path d="M 4745.776 2525.662 L 4793.302 2663.447 L 4698.249 2663.447 L 4745.776 2525.662 Z" style="paint-order: fill markers; stroke-width: 137.329px;" bx:shape="triangle 4698.249 2525.662 95.053 137.785 0.5 0 1@34af7768"/>
    <path d="M 4747.672 1728.66 L 4795.198 1866.445 L 4700.145 1866.445 L 4747.672 1728.66 Z" style="paint-order: fill markers; stroke-width: 137.329px;" bx:shape="triangle 4700.145 1728.66 95.053 137.785 0.5 0 1@1d1026d1"/>
    <path d="M 2351.85 1733.576 L 2399.376 1871.361 L 2304.323 1871.361 L 2351.85 1733.576 Z" style="paint-order: fill markers; stroke-width: 137.329px;" bx:shape="triangle 2304.323 1733.576 95.053 137.785 0.5 0 1@51ed1c91"/>
    <path d="M 2344.733 1042.131 L 2392.259 1179.916 L 2297.206 1179.916 L 2344.733 1042.131 Z" style="paint-order: fill markers; stroke-width: 137.329px;" bx:shape="triangle 2297.206 1042.131 95.053 137.785 0.5 0 1@aed293a8"/>
    <path d="M 2349.699 463.158 L 2397.225 600.943 L 2302.172 600.943 L 2349.699 463.158 Z" style="paint-order: fill markers; stroke-width: 137.329px;" bx:shape="triangle 2302.172 463.158 95.053 137.785 0.5 0 1@84b3a235"/>
    <text style="white-space: pre; fill: rgb(51, 51, 51); font-family: Arial, sans-serif; font-size: 28px;" transform="matrix(1, 0, 0, -1, 0, 0)" x="6828.914" y="-5266.272"> </text>
  </g>
  <text style="fill: rgb(51, 51, 51); font-family: Arial, sans-serif; font-size: 10px; text-anchor: middle; white-space: pre;" transform="matrix(1, 0, 0, 1, 72.347679, 6.867497)"><tspan x="148.924" y="87.014" style="fill: rgb(0, 0, 0);">Creating and Initializing variables:</tspan><tspan x="148.924" dy="1em">​</tspan><tspan style="fill: rgb(0, 0, 0);">chars = ['A', 'C', 'G', 'T'] </tspan><tspan x="148.924" dy="1em">​</tspan><tspan style="fill: rgb(0, 0, 0);">msalle = [0b1, 0b10, 0b100, 0b1000]</tspan><tspan x="148.924" dy="1em">​</tspan><tspan x="148.924" dy="1em">​</tspan><tspan> </tspan><tspan style="fill: rgb(255, 0, 0);">nSteps,</tspan><tspan x="148.924" dy="1em">​</tspan><tspan style="fill: rgb(255, 0, 255);">sampleSize</tspan><tspan>, </tspan><tspan x="148.924" dy="1em">​</tspan><tspan style="fill: rgb(0, 255, 0);">nDNAMute</tspan><tspan style="fill: rgb(0, 255, 55);">,</tspan><tspan> </tspan><tspan x="148.924" dy="1em">​</tspan><tspan style="fill: rgb(0, 0, 255);">nMSMute</tspan></text>
  <text style="font-family: Arial, sans-serif; font-size: 9px; text-anchor: middle; white-space: pre;" transform="matrix(1, 0, 0, 1, 44.16761, 2.397508)"><tspan x="177.237" y="192.337">Function definition: </tspan><tspan x="177.237" dy="1em">​</tspan><tspan>mkName</tspan><tspan x="177.237" dy="1em">​</tspan><tspan> sampleDNA</tspan><tspan x="177.237" dy="1em">​</tspan><tspan> sampleMSAT </tspan><tspan x="177.237" dy="1em">​</tspan><tspan> newGad </tspan><tspan x="177.237" dy="1em">​</tspan><tspan>cloneGad </tspan><tspan x="177.237" dy="1em">​</tspan><tspan>mutateDNA</tspan><tspan x="177.237" dy="1em">​</tspan><tspan>mutate_ms</tspan></text>
  <text style="font-family: Arial, sans-serif; font-size: 11px; white-space: pre;" x="79.576" y="293.262">Executing code to create an initial population of organisms</text>
  <text style="fill: rgb(0, 255, 0); font-family: Arial, sans-serif; font-size: 10px; white-space: pre;"><tspan x="332.956" y="333.768" style="fill: rgb(0, 0, 0);">Changing</tspan><tspan> nDNAMute</tspan></text>
  <text style="fill: rgb(51, 51, 51); font-family: Arial, sans-serif; font-size: 11px; white-space: pre;"><tspan x="329.859" y="385.296"> </tspan><tspan style="fill: rgb(0, 0, 0);">Changing</tspan><tspan> </tspan><tspan style="fill: rgb(0, 0, 255);">nMSMute</tspan></text>
  <text style="font-family: Arial, sans-serif; font-size: 10px; text-anchor: middle; white-space: pre;" transform="matrix(1, 0, 0, 1, 58.323895, -4.397508)"><tspan x="164.213" y="384.296">Creating a temporary sample </tspan><tspan x="164.213" dy="1em">​</tspan><tspan style="fill: rgb(255, 0, 255);">sampleSize</tspan></text>
  <text style="fill: rgb(255, 0, 0); font-family: Roboto; font-size: 11px; white-space: pre;" x="386.228" y="291.714">nSteps</text>
  <text style="fill: rgb(0, 255, 55); font-family: Arial, sans-serif; font-size: 10.4px; white-space: pre;" x="471.792" y="310.549"> </text>
  <text style="white-space: pre; fill: rgb(51, 51, 51); font-family: Arial, sans-serif; font-size: 10.4px;" x="462.878" y="342.49"> </text>
  <text style="white-space: pre; fill: rgb(51, 51, 51); font-family: Arial, sans-serif; font-size: 10.4px;" x="282.375" y="157.241"> </text>
  <text style="white-space: pre; fill: rgb(51, 51, 51); font-family: Arial, sans-serif; font-size: 10.4px;" x="377.084" y="284.056"> </text>
</svg>